<?xml version="1.0" encoding="utf-8"?>
<!-- Generator: Adobe Illustrator 22.0.1, SVG Export Plug-In . SVG Version: 6.00 Build 0)  -->
<svg version="1.1" id="Layer_1" xmlns="http://www.w3.org/2000/svg" xmlns:xlink="http://www.w3.org/1999/xlink" x="0px" y="0px"
	 viewBox="0 0 300 49.5" style="enable-background:new 0 0 300 49.5;" xml:space="preserve">
<style type="text/css">
	.st0{fill:#A4CF61;}
	.st1{fill:#07060B;}
</style>
<g>
	<path class="st0" d="M293,12.7c0-1.4-0.8-2.5-1.9-3.1l-8.6-4.9l0,0c-0.5-0.3-1.1-0.5-1.7-0.5c-0.6,0-1.2,0.2-1.7,0.5l0,0l-12.4,7.1
		l0,0c-1,0.6-1.6,1.7-1.6,3h0v14h0c0,1.2,0.6,2.3,1.6,3l0,0l12.4,7.1l0,0c0.5,0.3,1.1,0.5,1.7,0.5c0.6,0,1.2-0.2,1.7-0.5l0,0l8.7-5
		h0c1.1-0.6,1.8-1.8,1.8-3.1c0-1.9-1.6-3.5-3.5-3.5c-0.7,0-1.3,0.2-1.8,0.5l0,0l-7,4l-8.8-5v-10l8.8-5l7.1,4l0,0
		c0.5,0.3,1.1,0.4,1.7,0.4C291.4,16.2,293,14.6,293,12.7"/>
	<g>
		<path class="st1" d="M23.1,2.1c4.1,0,13.1,1.5,13.1,6.8v4.2h-4.5v-2.7c0-3-5.2-4.1-8.3-4.1c-7.3,0-12.7,5.4-12.7,13.2
			c0,8.1,5.5,13.9,13,13.9c2.4,0,8.5-0.9,8.5-4v-2.7h4.5v4.2c0,5-8.6,6.7-13.3,6.7C13,37.5,5.6,29.6,5.6,19.6
			C5.6,9.6,13.2,2.1,23.1,2.1"/>
		<path class="st1" d="M39.8,33.3h3.9v-27h-4.1V2.7h8.8v12.7c0,1.2-0.1,2-0.1,2h0.1c1.1-2.4,4.3-5.6,9.2-5.6c5.8,0,8.4,3.2,8.4,9.4
			v12.1h3.8V37h-8.5V22.3c0-3.4-0.7-6.2-4.7-6.2c-4.8,0-8.2,4.1-8.2,9.3v7.9h3.9V37H39.8V33.3z"/>
		<path class="st1" d="M83.5,11.8c7,0,10.6,5.1,10.6,11.5c0,0.6-0.1,1.8-0.1,1.8H76c0.3,5.4,4.1,8.3,8.5,8.3c4.3,0,7.3-2.8,7.3-2.8
			l1.9,3.4c0,0-3.7,3.4-9.6,3.4c-7.7,0-13-5.6-13-12.9C71.2,16.9,76.5,11.8,83.5,11.8 M89.2,22.1c-0.1-4.3-2.8-6.6-5.9-6.6
			c-3.6,0-6.5,2.4-7.2,6.6H89.2z"/>
		<path class="st1" d="M97.1,33.3h3.8V17.1c0-0.7-0.4-1-1.1-1h-3v-3.6h5.5c2.1,0,3.1,0.9,3.1,2.7v1.3c0,0.8-0.1,1.4-0.1,1.4h0.1
			c1.2-2.9,4.8-6,8.7-6c3.9,0,6.4,1.8,7.2,5.8h0.1c1.4-3.1,4.8-5.8,8.8-5.8c5.4,0,8,3.2,8,9.4v12.1h3.9V37h-8.6V22.2
			c0-3.4-0.6-6.2-4.3-6.2c-4.6,0-7.2,4.7-7.2,9.6v7.7h3.8V37h-8.5V22.2c0-3.2-0.5-6.2-4.3-6.2c-4.7,0-7.4,5-7.4,9.8v7.5h3.9V37H97.1
			V33.3z"/>
		<path class="st1" d="M172.3,43.2c2.1,0,3.7-1.5,4.5-3.4l1-2.4L169.2,16h-3.1v-3.6h11.2V16h-3.3l5.5,14.6c0.3,1.1,0.4,2.1,0.4,2.1
			h0.1c0,0,0.2-1.1,0.6-2.1l5.4-14.6H183v-3.6h10.9V16h-3.1l-9.7,24.8c-1.7,4.2-4.9,6.3-8.6,6.3c-3.2,0-5.3-1.6-5.3-1.6l1.6-3.5
			C168.8,42.1,170.2,43.2,172.3,43.2"/>
		<path class="st1" d="M200.1,43V17.1c0-0.7-0.4-1.1-1.1-1.1h-3v-3.6h5.4c2.2,0,3,1,3,2.4V15c0,0.8-0.1,1.4-0.1,1.4h0.1
			c0,0,2-4.6,8.3-4.6c6.6,0,10.8,5.2,10.8,12.9c0,7.8-4.7,12.9-11.1,12.9c-5.4,0-7.6-4.2-7.6-4.2h-0.1c0,0,0.1,0.9,0.1,2.1V43h3.9
			v3.6h-12.4V43H200.1z M211.6,33.5c3.9,0,7.1-3.2,7.1-8.7c0-5.3-2.9-8.8-7-8.8c-3.6,0-7,2.6-7,8.8
			C204.7,29.1,207.1,33.5,211.6,33.5"/>
		<path class="st1" d="M239.1,11.8c7,0,10.6,5.1,10.6,11.5c0,0.6-0.1,1.8-0.1,1.8h-18c0.3,5.4,4.1,8.3,8.5,8.3
			c4.3,0,7.3-2.8,7.3-2.8l1.9,3.4c0,0-3.7,3.4-9.6,3.4c-7.7,0-13-5.6-13-12.9C226.8,16.9,232.1,11.8,239.1,11.8 M244.9,22.1
			c-0.1-4.3-2.8-6.6-5.9-6.6c-3.6,0-6.5,2.4-7.2,6.6H244.9z"/>
		<polygon class="st1" points="140.9,2.7 140.9,10.4 145.2,10.4 145.2,6.7 153.2,6.7 153.2,33.2 148.9,33.2 148.9,37 162.4,37 
			162.4,33.2 158.1,33.2 158.1,6.7 166.1,6.7 166.1,10.4 170.3,10.4 170.3,2.7 		"/>
	</g>
</g>
</svg>
