<svg xmlns="http://www.w3.org/2000/svg" width="92.841" height="32.577" viewBox="0 0 92.841 32.577"><g transform="translate(-141.971 -86.146)"><g transform="translate(141.971 86.146)"><g transform="translate(42.702 8.163)" style="mix-blend-mode:multiply;isolation:isolate"><path d="M170.487,91.011a2.947,2.947,0,0,0-2.956-2.935,4.985,4.985,0,0,0-.715.08,50.5,50.5,0,0,1-11.695,1.392l-.1,0a2.938,2.938,0,1,0,0,5.875h0A56.587,56.587,0,0,0,168.042,93.9h0a2.935,2.935,0,0,0,2.445-2.889" transform="translate(-152.067 -88.076)" fill="#ce0e2d"/></g><path d="M152.619,92a2.927,2.927,0,1,0-2.927-2.927A2.922,2.922,0,0,0,152.619,92" transform="translate(-117.035 -86.146)" fill="#236092"/><path d="M160.34,92a2.927,2.927,0,1,0-2.927-2.927A2.925,2.925,0,0,0,160.34,92" transform="translate(-92.099 -86.146)" fill="#007580"/><g transform="translate(0 8.903)" style="mix-blend-mode:multiply;isolation:isolate"><path d="M171.813,94.495l1.138.508a3.615,3.615,0,0,0,1.434.334,2.624,2.624,0,0,0,2.567-2.656c0-2.407-3.663-4.428-7.8-4.428-5.054,0-8.721,3.033-8.721,7.254a5.607,5.607,0,0,0,2.064,4.475,19.2,19.2,0,0,0,4.424,2.064l1.73.677c1.641.592,2.487,1.265,2.487,2.026,0,.969-1.011,1.73-2.318,1.73a7.32,7.32,0,0,1-3.121-.93s-1.007-.575-1.18-.673a4.218,4.218,0,0,0-2.064-.592,2.808,2.808,0,0,0-2.741,2.825c0,2.534,4.217,4.809,8.853,4.809,5.181,0,8.933-2.995,8.933-7.254a6.1,6.1,0,0,0-2.864-5.105,26,26,0,0,0-4.386-2.026c-2.906-1.138-3.494-1.476-3.494-2.407,0-.8.837-1.392,1.979-1.392a9.237,9.237,0,0,1,3.075.761" transform="translate(-84.661 -88.248)" fill="#fff"/><path d="M159.7,103.043V91.208a2.954,2.954,0,1,0-5.909,0v11.835a2.957,2.957,0,1,1-5.913,0V91.208a2.954,2.954,0,1,0-5.909,0V103.3h.008a8.862,8.862,0,0,0,17.718,0h0v-.254Z" transform="translate(-141.971 -88.248)" fill="#fff"/><path d="M162.51,103.043V91.208a2.957,2.957,0,1,0-5.913,0v11.835a2.954,2.954,0,1,1-5.909,0V91.208a2.954,2.954,0,1,0-5.909,0V103.3h0a8.862,8.862,0,0,0,17.718,0h.008v-.254Z" transform="translate(-132.902 -88.248)" fill="#fff"/><path d="M158.557,106a2.96,2.96,0,0,1-2.956-2.961V91.208a2.954,2.954,0,1,0-5.909,0V103.3h0a8.864,8.864,0,0,0,17.722,0h0v-.254h0V94.7c-1.573.131-3.164.2-4.771.2h0a3,3,0,0,1-1.138-.224v8.362A2.957,2.957,0,0,1,158.557,106" transform="translate(-117.035 -88.248)" fill="#fff"/><path d="M172.336,103.043h0V91.208a2.954,2.954,0,1,0-5.909,0v11.835a2.957,2.957,0,1,1-5.913,0V93.2a3.215,3.215,0,0,1-.622.186h0c-1.73.41-3.5.736-5.287.986V103.3h0a8.864,8.864,0,0,0,17.722,0h0v-.254Z" transform="translate(-101.168 -88.248)" fill="#fff"/><path d="M150.517,94.109a2.929,2.929,0,1,0-2.931-2.927,2.928,2.928,0,0,0,2.931,2.927" transform="translate(-123.837 -88.251)" fill="#fff"/><path d="M147.706,94.109a2.929,2.929,0,1,0-2.927-2.927,2.928,2.928,0,0,0,2.927,2.927" transform="translate(-132.902 -88.251)" fill="#fff"/><path d="M144.9,94.109a2.929,2.929,0,1,0-2.927-2.927,2.929,2.929,0,0,0,2.927,2.927" transform="translate(-141.971 -88.251)" fill="#fff"/><path d="M167.822,99.828a2.616,2.616,0,0,1-4.53-1.8V89.91a8.538,8.538,0,0,0,2.618,16.652,8.428,8.428,0,0,0,4.335-1.193c-1.912-.9-3.185-2.212-3.185-3.6a2.88,2.88,0,0,1,.761-1.937Z" transform="translate(-92.099 -82.893)" fill="#fff"/></g><path d="M171.813,94.495l1.138.508a3.615,3.615,0,0,0,1.434.334,2.624,2.624,0,0,0,2.567-2.656c0-2.407-3.663-4.428-7.8-4.428-5.054,0-8.721,3.033-8.721,7.254a5.607,5.607,0,0,0,2.064,4.475,19.2,19.2,0,0,0,4.424,2.064l1.73.677c1.641.592,2.487,1.265,2.487,2.026,0,.969-1.011,1.73-2.318,1.73a7.32,7.32,0,0,1-3.121-.93s-1.007-.575-1.18-.673a4.218,4.218,0,0,0-2.064-.592,2.808,2.808,0,0,0-2.741,2.825c0,2.534,4.217,4.809,8.853,4.809,5.181,0,8.933-2.995,8.933-7.254a6.1,6.1,0,0,0-2.864-5.105,26,26,0,0,0-4.386-2.026c-2.906-1.138-3.494-1.476-3.494-2.407,0-.8.837-1.392,1.979-1.392a9.237,9.237,0,0,1,3.075.761" transform="translate(-84.661 -79.344)" fill="#66c9ba"/><g transform="translate(11.877 8.908)" style="mix-blend-mode:multiply;isolation:isolate"><path d="M162.51,103.043V91.208a2.957,2.957,0,1,0-5.913,0v11.835a2.954,2.954,0,1,1-5.909,0V91.208a2.954,2.954,0,1,0-5.909,0V103.3h0a8.862,8.862,0,0,0,17.718,0h.008v-.254Z" transform="translate(-144.779 -88.252)" fill="#4197cb"/></g><g transform="translate(65.314 21.114)" style="mix-blend-mode:multiply;isolation:isolate"><path d="M172.373,96.087a3.61,3.61,0,0,0-1.425-.96,2.964,2.964,0,0,0-3.126.736,2.616,2.616,0,0,1-4.53-1.8h-.025a2.927,2.927,0,1,0-5.854,0h0a8.513,8.513,0,0,0,8.5,8.531,8.788,8.788,0,0,0,3.451-.732,7.482,7.482,0,0,0,2.707-1.827c.935-1.015,1.561-2.69.3-3.95" transform="translate(-157.413 -91.138)" fill="#fcd672"/></g><g transform="translate(0.063 8.908)" style="mix-blend-mode:multiply;isolation:isolate"><path d="M159.721,103.047V91.213a2.957,2.957,0,1,0-5.913,0v11.835a2.954,2.954,0,1,1-5.909,0V91.213a2.957,2.957,0,1,0-5.913,0V103.3h.008a8.862,8.862,0,0,0,17.718,0h.008v-.254Z" transform="translate(-141.986 -88.252)" fill="#a2d45e"/></g><g transform="translate(53.437 8.908)" style="mix-blend-mode:multiply;isolation:isolate"><path d="M172.336,103.043V91.208a2.954,2.954,0,1,0-5.909,0v11.835a2.954,2.954,0,1,1-5.909,0V91.208a2.957,2.957,0,0,0-5.913,0V103.3h0a8.864,8.864,0,0,0,17.722,0h0v-.254Z" transform="translate(-154.605 -88.252)" fill="#ffb71b"/></g><g transform="translate(32.657 8.908)" style="mix-blend-mode:multiply;isolation:isolate"><path d="M167.423,103.043V91.885a2.957,2.957,0,1,0-5.913,0v11.158a2.954,2.954,0,1,1-5.909,0V91.208a2.954,2.954,0,1,0-5.909,0V103.3h0a8.864,8.864,0,0,0,17.722,0h0v-.254Z" transform="translate(-149.692 -88.252)" fill="#fd495c"/></g></g></g></svg>