<?xml version="1.0" encoding="utf-8"?>
<!-- Generator: Adobe Illustrator 22.0.1, SVG Export Plug-In . SVG Version: 6.00 Build 0)  -->
<svg version="1.1" id="Layer_1" xmlns="http://www.w3.org/2000/svg" xmlns:xlink="http://www.w3.org/1999/xlink" x="0px" y="0px"
	 viewBox="0 0 291.7 52.4" style="enable-background:new 0 0 291.7 52.4;" xml:space="preserve">
<style type="text/css">
	.st0{fill:#FFFFFF;}
	.st1{fill:#EF4A5F;}
	.st2{fill:#C8202F;}
	.st3{fill:#0A0A0D;}
</style>
<g>
	<path class="st0" d="M290,10.7c0-2.1-1.7-3.7-3.7-3.7c-0.4,0-0.9,0.1-0.9,0.1c-4.8,1.1-8.9,1.8-14.1,1.8c0,0-0.1,0-0.1,0
		c-1.1,0-2.2,0.5-2.8,1.3c0,0,0,0,0,0c0,0,0,0,0,0c-0.3,0.4-0.6,0.8-0.7,1.3L263,25.3l-3.4-6.9c-0.9-1.9-3.2-2.6-5.1-1.7
		c-1.9,0.9-2.6,3.2-1.7,5.1l7.5,15.1c0.6,1.3,2,2.1,3.4,2.1c0.1,0,0.2,0,0.3,0c1.5-0.1,2.8-1.1,3.3-2.6l6.7-20.1
		c4.5-0.2,8.5-0.8,12.9-1.9h0C288.7,14.1,290,12.6,290,10.7z"/>
	<g>
		<g>
			<g>
				<path class="st1" d="M263.7,39c-1.4,0-2.7-0.8-3.4-2.1l-7.5-15.1c-0.9-1.9-0.2-4.1,1.7-5.1c1.9-0.9,4.1-0.2,5.1,1.7l3.4,6.9
					l4.6-13.8c0.7-2,2.8-3.1,4.8-2.4c2,0.7,3.1,2.8,2.4,4.8l-7.5,22.5c-0.5,1.5-1.8,2.5-3.3,2.6C263.8,39,263.7,39,263.7,39"/>
			</g>
		</g>
		<g>
			<g>
				<path class="st2" d="M290,10.7c0-2.1-1.7-3.7-3.7-3.7c-0.4,0-0.9,0.1-0.9,0.1c-4.8,1.1-8.9,1.8-14.1,1.8c0,0-0.1,0-0.1,0
					c-2.1,0-3.7,1.7-3.7,3.7c0,2.1,1.7,3.7,3.7,3.7c0,0,0,0,0,0c5.7,0,10.4-0.7,15.7-1.9h0C288.7,14.1,290,12.6,290,10.7"/>
			</g>
		</g>
	</g>
	<g>
		<path class="st3" d="M2,34.9h4.5L8.8,6.8H4.2V2.9h10.2l9.2,21.9c0.6,1.5,0.8,2.6,0.8,2.6h0.1c0,0,0.3-1.1,0.8-2.6l9.2-21.9h10.2
			v3.9h-4.6l2.3,28.1H47v4H33.1v-4h4.3l-1.6-21.5c-0.1-1.1,0.2-3,0.2-3h-0.2c0,0-0.4,1.7-0.8,2.8l-8.3,18.9h-4.5L14,13.2
			c-0.4-1-0.8-2.8-0.8-2.8H13c0,0,0.2,1.8,0.2,3l-1.6,21.5h4.3v4H2V34.9z"/>
		<path class="st3" d="M65,23.1h1.6v-1c0-4.1-2.3-5.5-5.5-5.5c-4.1,0-7.4,2.5-7.4,2.5l-2-3.5c0,0,3.8-3.1,9.8-3.1
			c6.6,0,10,3.4,10,9.9V34c0,0.8,0.4,1.1,1.1,1.1h2.6v3.8h-5.1c-2.3,0-3.2-1.1-3.2-2.8v-0.4c0-1,0.2-1.7,0.2-1.7H67
			c0,0-2.2,5.5-8.5,5.5c-4.3,0-8.6-2.5-8.6-7.8C49.9,23.6,60.7,23.1,65,23.1 M59.6,35.7c4.4,0,7.1-4.5,7.1-8.4v-1.1h-1.3
			c-2.3,0-10.4,0.1-10.4,5C54.9,33.6,56.6,35.7,59.6,35.7"/>
		<path class="st3" d="M79.6,16.9h-4.3v-3.8h4.4V6h4.8v7.1h6.2v3.8h-6.2V29c0,5.3,3.6,5.9,5.5,5.9c0.7,0,1.2-0.1,1.2-0.1V39
			c0,0-0.7,0.1-1.8,0.1c-3.3,0-9.8-1-9.8-9.6V16.9z"/>
		<path class="st3" d="M93.9,35.1H98V6.7h-4.3V2.9h9.2v13.4c0,1.2-0.2,2.1-0.2,2.1h0.1c1.1-2.5,4.5-5.9,9.6-5.9
			c6.1,0,8.9,3.3,8.9,9.9v12.7h4v3.8h-9V23.5c0-3.6-0.8-6.5-4.9-6.5c-5,0-8.6,4.3-8.6,9.8v8.3h4.1v3.8h-13V35.1z"/>
		<polygon class="st3" points="132.4,34.9 136.9,34.9 136.9,7.1 128.5,7.1 128.5,10.7 124.1,10.7 124.1,3 154.9,3 154.9,10.7 
			150.5,10.7 150.5,7.1 142,7.1 142,34.9 146.6,34.9 146.6,38.9 132.4,38.9 		"/>
		<path class="st3" d="M156.9,45.5c2.2,0,3.9-1.5,4.7-3.6l1.1-2.5l-9-22.4h-3.3v-3.8h11.8v3.8h-3.4l5.8,15.3
			c0.4,1.1,0.5,2.2,0.5,2.2h0.2c0,0,0.2-1.1,0.6-2.2l5.7-15.3h-3.3v-3.8h11.4v3.8h-3.2l-10.2,26c-1.7,4.4-5.1,6.6-9.1,6.6
			c-3.3,0-5.6-1.6-5.6-1.6l1.7-3.7C153.3,44.3,154.7,45.5,156.9,45.5"/>
		<path class="st3" d="M186.1,45.3V18.1c0-0.8-0.4-1.1-1.1-1.1h-3.2v-3.8h5.7c2.3,0,3.2,1,3.2,2.5v0.2c0,0.8-0.1,1.5-0.1,1.5h0.1
			c0,0,2.1-4.8,8.7-4.8c6.9,0,11.3,5.5,11.3,13.5c0,8.2-4.9,13.5-11.7,13.5c-5.7,0-8-4.4-8-4.4h-0.1c0,0,0.2,0.9,0.2,2.2v7.9h4.1
			v3.8h-13.1v-3.8H186.1z M198.2,35.2c4.1,0,7.4-3.3,7.4-9.2c0-5.6-3-9.2-7.3-9.2c-3.8,0-7.4,2.7-7.4,9.3
			C191,30.7,193.5,35.2,198.2,35.2"/>
		<path class="st3" d="M227.1,12.5c7.3,0,11.2,5.4,11.2,12.1c0,0.7-0.2,1.9-0.2,1.9h-18.9c0.3,5.7,4.3,8.8,8.9,8.8
			c4.5,0,7.7-2.9,7.7-2.9l2,3.6c0,0-3.9,3.6-10,3.6c-8.1,0-13.7-5.9-13.7-13.5C214.2,17.8,219.8,12.5,227.1,12.5 M233.2,23.3
			c-0.2-4.5-2.9-6.9-6.2-6.9c-3.8,0-6.8,2.5-7.5,6.9H233.2z"/>
	</g>
</g>
</svg>
