<?xml version="1.0" encoding="UTF-8" standalone="no"?>
<!-- Generator: Adobe Illustrator 19.2.1, SVG Export Plug-In . SVG Version: 6.00 Build 0)  -->

<svg
   xmlns:dc="http://purl.org/dc/elements/1.1/"
   xmlns:cc="http://creativecommons.org/ns#"
   xmlns:rdf="http://www.w3.org/1999/02/22-rdf-syntax-ns#"
   xmlns:svg="http://www.w3.org/2000/svg"
   xmlns="http://www.w3.org/2000/svg"
   xmlns:sodipodi="http://sodipodi.sourceforge.net/DTD/sodipodi-0.dtd"
   xmlns:inkscape="http://www.inkscape.org/namespaces/inkscape"
   version="1.0"
   id="Capa_1"
   x="0px"
   y="0px"
   viewBox="0 0 127.95221 45"
   enable-background="new 0 0 388 137"
   xml:space="preserve"
   inkscape:version="0.91 r13725"
   sodipodi:docname="wiris_logo_salmon.svg"
   width="127.95221"
   height="45"><metadata
     id="metadata9"><rdf:RDF><cc:Work
         rdf:about=""><dc:format>image/svg+xml</dc:format><dc:type
           rdf:resource="http://purl.org/dc/dcmitype/StillImage" /><dc:title></dc:title></cc:Work></rdf:RDF></metadata><defs
     id="defs7" /><sodipodi:namedview
     pagecolor="#ffffff"
     bordercolor="#666666"
     borderopacity="1"
     objecttolerance="10"
     gridtolerance="10"
     guidetolerance="10"
     inkscape:pageopacity="0"
     inkscape:pageshadow="2"
     inkscape:window-width="2560"
     inkscape:window-height="1377"
     id="namedview5"
     showgrid="false"
     fit-margin-top="0"
     fit-margin-left="0"
     fit-margin-right="0"
     fit-margin-bottom="0"
     inkscape:zoom="4.3217421"
     inkscape:cx="102.87554"
     inkscape:cy="41.553137"
     inkscape:window-x="-8"
     inkscape:window-y="-8"
     inkscape:window-maximized="1"
     inkscape:current-layer="Capa_1" /><path
     d="m 40.930147,32.75735 c 0,0 0,0 0,0 0,0 0,0 0,0 l 0,-16.37867 c 0,-2.25 -1.819853,-4.10294 -4.102941,-4.10294 -2.25,0 -4.102941,1.81985 -4.102941,4.10294 l 0,16.37867 c 0,2.25 -1.819853,4.10294 -4.102941,4.10294 -2.25,0 -4.102942,-1.81985 -4.102942,-4.10294 0,0 0,0 0,0 0,0 0,0 0,0 l 0,-16.37867 c 0,-2.25 -1.819853,-4.10294 -4.102941,-4.10294 l 0,0 c -2.25,0 -4.102941,1.81985 -4.102941,4.10294 l 0,16.37867 c 0,2.25 -1.819853,4.10294 -4.102941,4.10294 -2.2830884,0 -4.0367649,-1.85294 -4.0367649,-4.10294 l 0,-11.58088 0,-4.79779 c 0,-2.25 -1.8198529,-4.10294 -4.1029412,-4.10294 C 1.8198529,12.27574 0,14.12868 0,16.37868 l 0,16.70956 0,0 C 0.19852941,39.70588 5.5919118,45 12.275735,45 15.419118,45 18.297794,43.80882 20.448529,41.85662 22.632353,43.80882 25.477941,45 28.621324,45 35.272059,45 40.698529,39.70588 40.897059,33.08824 l 0,0 0,-0.33089 z M 53.205882,4.102941 C 53.205882,1.852941 51.386029,0 49.102941,0 46.852941,0 45,1.819853 45,4.102941 c 0,2.25 1.819853,4.102941 4.102941,4.102941 2.283088,0 4.102941,-1.852941 4.102941,-4.102941 m 45.033089,0 C 98.238971,1.852941 96.419118,0 94.136029,0 c -2.25,0 -4.102941,1.819853 -4.102941,4.102941 0,2.25 1.819853,4.102941 4.102941,4.102941 2.25,0 4.102942,-1.852941 4.102942,-4.102941 M 127.35662,18.39706 c 0,-3.34191 -5.0625,-6.12132 -10.78677,-6.12132 -7.0147,0 -12.0772,4.2022 -12.0772,10.02573 0,2.51471 1.125,4.89706 2.84559,6.1875 1.22426,0.86029 3.34191,1.85294 6.12132,2.84559 l 2.38235,0.92647 c 2.28309,0.82721 3.44118,1.75368 3.44118,2.8125 0,1.35662 -1.38971,2.38235 -3.20956,2.38235 -1.125,0 -2.8125,-0.46323 -4.33456,-1.29044 0,0 -1.38971,-0.79412 -1.62132,-0.92647 -1.38971,-0.69485 -2.08456,-0.82721 -2.84559,-0.82721 -1.09191,0 -2.05147,0.46324 -2.74632,1.22427 l 0,0 c -0.66177,0.69485 -1.62133,1.15809 -2.64706,1.15809 -2.018386,0 -3.639709,-1.62133 -3.639709,-3.63971 l 0,-11.25 0,-5.52573 c 0,-2.25 -1.819853,-4.10294 -4.102942,-4.10294 -2.25,0 -4.102941,1.81985 -4.102941,4.10294 l 0,16.37867 c 0,2.25 -1.819853,4.10294 -4.102941,4.10294 -2.25,0 -4.102941,-1.81985 -4.102941,-4.10294 l 0,-12.60661 0,-1.02574 c 1.48897,-0.62868 2.514706,-2.08456 2.514706,-3.77206 0,-2.25 -1.819853,-4.10294 -4.102941,-4.10294 -0.397059,0 -1.025736,0.13235 -0.992647,0.13235 l 0,0 c -5.194853,1.25736 -10.621324,1.91912 -16.213236,1.95221 -0.03309,0 -0.09926,0 -0.132353,0 -2.25,0 -4.102941,1.81985 -4.102941,4.10294 0,1.6875 1.025735,3.17647 2.514706,3.77206 l 0,11.58088 c 0,2.25 -1.819853,4.10294 -4.102941,4.10294 -2.25,0 -4.102941,-1.81985 -4.102941,-4.10294 l 0,-11.58088 0,-4.83088 c 0,-2.25 -1.819853,-4.10294 -4.102942,-4.10294 -2.25,0 -4.102941,1.81985 -4.102941,4.10294 l 0,16.70956 0,0 C 45.099265,39.70588 50.492647,45 57.176471,45 63.827206,45 69.253676,39.70588 69.452206,33.08824 l 0,0 0,-0.36398 c 0,0 0,0 0,0 0,0 0,0 0,0 l 0,-11.5147 c -0.330882,0.0331 2.415441,-0.23162 4.102941,-0.46324 l 0,0 0,12.34192 0,0 C 73.753676,39.70588 79.147059,45 85.830882,45 88.908088,45 91.720588,43.875 93.871324,41.98897 95.955882,43.875 98.735294,45 101.74632,45 c 2.21692,0 4.26839,-0.59559 6.02206,-1.65441 2.18383,1.02573 4.93015,1.65441 7.80883,1.65441 7.18014,0 12.375,-4.13603 12.375,-10.02574 0,-2.8125 -1.45589,-5.42647 -3.97059,-7.04779 -1.58824,-0.92647 -2.91177,-1.58823 -6.05515,-2.8125 -4.03676,-1.58823 -4.83088,-2.05147 -4.83088,-3.34191 0,-1.125 1.15809,-1.91912 2.74632,-1.91912 0.99265,0 2.74633,0.39706 4.26838,1.05882 l 1.58824,0.69486 c 0.59559,0.29779 1.38971,0.46323 1.98529,0.46323 2.08456,0.0331 3.6728,-1.6875 3.6728,-3.67279"
     id="path3"
     inkscape:connector-curvature="0"
     style="fill:#f26a54;fill-opacity:1" /></svg>