<?xml version="1.0" encoding="utf-8"?>
<!-- Generator: Adobe Illustrator 22.0.1, SVG Export Plug-In . SVG Version: 6.00 Build 0)  -->
<svg version="1.1" id="Livello_1" xmlns="http://www.w3.org/2000/svg" xmlns:xlink="http://www.w3.org/1999/xlink" x="0px" y="0px"
	 viewBox="0 0 786.4 140.8" style="enable-background:new 0 0 786.4 140.8;" xml:space="preserve">
<style type="text/css">
	.st0{fill:#000007;}
	.st1{fill:#007680;}
	.st2{fill:#6BCABA;}
</style>
<g>
	<g>
		<g>
			<path class="st0" d="M19.3,35.5h24.8v7.6h-8.3l10.9,45.8c0.5,2.5,0.8,5.2,0.8,5.2h0.3c0,0,0.4-2.8,1-5.2l14.6-53.4h8.4l14.5,53.4
				c0.7,2.5,1,5.2,1,5.2h0.4c0,0,0.2-2.8,0.7-5.2l10.9-45.8H91v-7.6H116v7.6h-6.7l-15.6,62.2H82.3L68.7,55.8
				c-0.7-2.5-0.9-5.5-0.9-5.5h-0.4c0,0-0.2,3.1-0.9,5.5l-13.7,49.6H41.6L26,43.1h-6.7V35.5z"/>
			<path class="st0" d="M117.9,97.9h7.8V62.7h-8.3v-7.4h17.9v42.6h7.9v7.4h-25.3V97.9z M125.5,35.5h10.1v9.8h-10.1V35.5z"/>
			<path class="st0" d="M149.4,97.9h7.5v-33c0-1.5-0.8-2.2-2.2-2.2h-6.2v-7.4h11.3c4.4,0,6.4,1.8,6.4,5.8v3.2c0,2-0.2,3.5-0.2,3.5
				h0.2c2.3-7.3,8.1-13.1,15.8-13.1c1.3,0,2.5,0.2,2.5,0.2v9.5c0,0-1.2-0.3-2.8-0.3c-10.7,0-15.2,10.8-15.2,20.6v13.3h7.4v7.4h-24.5
				V97.9z"/>
			<path class="st0" d="M190.3,97.9h7.8V62.7h-8.3v-7.4h17.9v42.6h7.9v7.4h-25.3V97.9z M197.9,35.5H208v9.8h-10.1V35.5z"/>
			<path class="st0" d="M221.3,89.2h8.4v3.3c0,4.3,5.9,6.2,11.5,6.2c5.6,0,10.1-2.3,10.1-6.4c0-5-5.5-6.6-12.5-9.1
				c-7.4-2.8-15.6-6.1-15.6-15.2c0-9.9,9.8-13.9,18.5-13.9c7,0,17.3,2.8,17.3,10.1v6h-8.4v-3.3c0-3.1-4-5.1-8.8-5.1
				c-4.7,0-8.9,2-8.9,6c0,4.7,5.5,6.7,11.6,8.8c7.7,2.6,16.5,5.8,16.5,15.1c0,9.5-8.7,14.7-20.1,14.7c-9.1,0-19.6-4.1-19.6-12V89.2z
				"/>
			<path class="st0" d="M304.1,34.3c20.3,0,36,14.9,36,35.2c0,9.1-3.1,17.2-8.4,23.5l8.3,7.9l-5.6,6.1l-8.2-8.2
				c-6,4.9-13.7,7.6-22.2,7.6c-20.3,0-35.8-16.1-35.8-36.5C268.2,49.8,283.6,34.3,304.1,34.3z M304.1,97.7c5.1,0,11.2-1.8,15.2-5.2
				L309,82.3l5.6-6l10.2,10.3c3.2-4.6,5.2-10.4,5.2-16.6c0-15.2-11.4-26.9-26-26.9c-14.4,0-25.7,11.6-25.7,27
				C278.3,85.6,289.6,97.7,304.1,97.7z"/>
		</g>
		<g>
			<path class="st0" d="M354,62.7h-8.4v-7.4h18v30.1c0,6.9,1.4,12.5,9.4,12.5c10,0,16.2-9.6,16.2-19.5V62.7h-8.4v-7.4h18v40.6
				c0,1.4,0.8,2.2,2.2,2.2h5.2v7.3h-10.4c-4.4,0-6.3-2-6.3-5.5v-2.2c0-1.7,0.2-3,0.2-3h-0.2c-1,2.7-6.6,11.9-19.1,11.9
				c-10.8,0-16.4-5.9-16.4-19.2V62.7z"/>
		</g>
		<g>
			<path class="st0" d="M410.2,97.9h7.8V62.7h-8.3v-7.4h17.9v42.6h7.9v7.4h-25.3V97.9z M417.9,35.5H428v9.8h-10.1V35.5z"/>
			<path class="st0" d="M469.2,65.6c1.5-1.8,2.8-2.9,2.8-2.9v-0.2c0,0-2.1,0.2-4.1,0.2h-17.4v8h-8.4V55.3h41.5v6.3L456.2,95
				c-1.5,1.8-2.8,2.8-2.8,2.8V98c0,0,2-0.1,4-0.1h18.5v-8h8.4v15.4h-42.6V99L469.2,65.6z"/>
			<path class="st0" d="M519.6,65.6c1.5-1.8,2.8-2.9,2.8-2.9v-0.2c0,0-2.1,0.2-4.1,0.2h-17.4v8h-8.4V55.3h41.5v6.3L506.5,95
				c-1.5,1.8-2.8,2.8-2.8,2.8V98c0,0,2-0.1,4-0.1h18.5v-8h8.4v15.4H492V99L519.6,65.6z"/>
			<path class="st0" d="M565.7,54.1c14.2,0,21.7,10.5,21.7,23.5c0,1.3-0.3,3.7-0.3,3.7h-36.6c0.6,11.1,8.4,17,17.3,17
				c8.7,0,14.9-5.6,14.9-5.6l4,7c0,0-7.5,6.9-19.5,6.9c-15.7,0-26.5-11.4-26.5-26.2C540.7,64.4,551.4,54.1,565.7,54.1z M577.5,75.1
				c-0.3-8.8-5.6-13.4-12-13.4c-7.3,0-13.3,4.9-14.6,13.4H577.5z"/>
			<path class="st0" d="M593.9,89.2h8.4v3.3c0,4.3,5.9,6.2,11.5,6.2c5.6,0,10.1-2.3,10.1-6.4c0-5-5.5-6.6-12.5-9.1
				c-7.4-2.8-15.6-6.1-15.6-15.2c0-9.9,9.8-13.9,18.5-13.9c7,0,17.3,2.8,17.3,10.1v6h-8.4v-3.3c0-3.1-4-5.1-8.8-5.1
				c-4.7,0-8.9,2-8.9,6c0,4.7,5.5,6.7,11.6,8.8c7.7,2.6,16.5,5.8,16.5,15.1c0,9.5-8.7,14.7-20.1,14.7c-9.1,0-19.6-4.1-19.6-12V89.2z
				"/>
		</g>
	</g>
	<g>
		<g>
			<g>
				<g>
					<path class="st1" d="M760,41.9c1-1.2,1.7-2.9,1.7-4.6c0-4-3.2-7.2-7.2-7.2c-2.5,0-4.7,1.3-6,3.2l-30.3,36.2l-15.8-15.9l0,0
						c-1.3-1.3-3.1-2.1-5.1-2.1c-4,0-7.2,3.2-7.2,7.2c0,2.2,1,4.2,2.6,5.5l20.8,20.9c0.1,0.1,0.1,0.1,0.2,0.2l0.1,0.1l0,0
						c1.3,1.2,3,1.9,4.9,1.9c2.4,0,4.5-1.1,5.8-2.9L760,41.9L760,41.9z"/>
				</g>
			</g>
		</g>
		<g>
			<g>
				<g>
					<path class="st2" d="M732.9,105.4h-57.3c-3.9,0-7.1-3.2-7.1-7.1V40.4c0-3.9,3.2-7.1,7.1-7.1H726c3.9,0,7.1,3.2,7.1,7.1
						c0,3.9-3.2,7.1-7.1,7.1h-43.3v43.7h43.1v-1.1c0-3.9,3.2-7.1,7.1-7.1c3.9,0,7.1,3.2,7.1,7.1v8.2
						C740.1,102.3,736.9,105.4,732.9,105.4z"/>
				</g>
			</g>
		</g>
	</g>
</g>
</svg>
